Coordinates
version=1
nRows=12
nColumns=24
inDegrees=yes

Units are S.I. units (second, meters, Newtons, ...)
Angles are in degrees.

endheader
time	pelvis_tilt	pelvis_list	pelvis_rotation	pelvis_tx	pelvis_ty	pelvis_tz	hip_flexion_r	hip_adduction_r	hip_rotation_r	knee_angle_r	ankle_angle_r	subtalar_angle_r	mtp_angle_r	hip_flexion_l	hip_adduction_l	hip_rotation_l	knee_angle_l	ankle_angle_l	subtalar_angle_l	mtp_angle_l	lumbar_extension	lumbar_bending	lumbar_rotation
      3.98000000	     -7.35074059	     -6.53170060	     -9.64534948	     -2.79580588	      0.67304489	      0.32561089	    -14.34047456	      7.91168154	      6.28645499	    -18.90686127	      8.66049379	      8.80232533	      0.00000000	     28.81337790	     -5.95971332	     11.67498192	     -0.15760964	      0.73181389	    -27.42233498	      0.00000000	    -11.29554256	      4.25171130	      7.94559725
      3.99000000	     -6.74808093	     -5.09182239	     -9.45141093	     -2.77912053	      0.67328388	      0.32405633	    -13.39583532	      5.88080624	      4.22131477	    -23.01367480	      6.58529778	     10.18848384	      0.00000000	     29.19448764	     -3.59840391	     12.05441886	     -3.79894171	     -0.06646318	    -27.67800414	      0.00000000	    -11.58864712	      2.38415743	      7.41777863
      4.00000000	     -6.14397124	     -3.63786606	     -9.29987878	     -2.76270203	      0.67357047	      0.32245290	    -12.13363978	      3.80516365	      2.55936613	    -27.46787407	      3.99580492	     10.94392031	      0.00000000	     29.67040355	     -1.20691077	     11.91411200	     -7.71797691	     -0.74365968	    -27.45597982	      0.00000000	    -11.96852505	      0.51892795	      6.94127066
      4.01000000	     -5.79748139	     -2.30611373	     -9.23919172	     -2.74674425	      0.67354339	      0.32103764	    -10.28139336	      1.92634131	      1.46101349	    -32.22961373	      1.03590437	     11.10874734	      0.00000000	     30.56999075	      0.91975583	     10.64624229	    -11.89638399	     -0.38763491	    -25.67657710	      0.00000000	    -12.12766033	     -1.14829647	      6.50093461
      4.02000000	     -5.53001508	     -1.06740436	     -9.19438161	     -2.73113319	      0.67338798	      0.32001667	     -8.16484316	      0.31507794	      1.02895387	    -37.02013647	     -2.07251374	     10.55545526	      0.00000000	     31.46032395	      2.76099841	      9.04615462	    -15.87971255	      0.17432227	    -23.75626578	      0.00000000	    -12.22743230	     -2.77104493	      6.17333629
      4.03000000	     -5.26246001	      0.11394739	     -9.30324543	     -2.71584180	      0.67329194	      0.31928188	     -5.81068564	     -1.15201157	      1.10984376	    -41.86419357	     -4.94043412	      9.95373487	      0.00000000	     31.99891889	      4.32392344	      7.41972885	    -19.20617527	      0.78991111	    -22.32739366	      0.00000000	    -12.32171440	     -4.31295126	      5.93561308
      4.04000000	     -5.10862696	      1.19596709	     -9.43187569	     -2.70098183	      0.67321842	      0.31881479	     -3.17465669	     -2.30282073	      1.59158885	    -46.60468916	     -7.37703370	      9.14967794	      0.00000000	     32.30448951	      5.64855773	      6.00554099	    -21.88150205	      1.59199287	    -21.20311136	      0.00000000	    -12.29960544	     -5.72816563	      5.71769137
      4.05000000	     -5.01176646	      2.25343980	     -9.54321750	     -2.68646653	      0.67332259	      0.31846590	     -0.36507316	     -3.23591853	      2.36635778	    -51.15902299	     -8.99472423	      8.57581117	      0.00000000	     32.24836457	      6.88920200	      4.85290427	    -23.78524261	      2.54745863	    -20.42901852	      0.00000000	    -12.20166189	     -7.08871383	      5.37390709
      4.06000000	     -4.96528604	      3.27367451	     -9.63564444	     -2.67217425	      0.67374735	      0.31817136	      2.55631268	     -3.96348211	      3.31976430	    -55.42499895	     -9.72521709	      8.31859606	      0.00000000	     31.78994819	      8.07084940	      3.93635319	    -24.88847325	      3.68195158	    -19.90291041	      0.00000000	    -11.99831322	     -8.34967298	      4.94484215
      4.07000000	     -4.86955597	      4.24083750	     -9.64264826	     -2.65806134	      0.67465669	      0.31777322	      5.41539590	     -4.53870696	      4.25395296	    -59.30162621	     -9.51322890	      8.27400994	      0.00000000	     30.83471594	      9.27163825	      3.39022810	    -25.23192923	      4.88133451	    -19.58426567	      0.00000000	    -11.83733897	     -9.47830672	      4.43046727
      4.08000000	     -4.78670245	      5.10389070	     -9.59461810	     -2.64399512	      0.67601998	      0.31742623	      8.20591391	     -4.87175378	      5.22722556	    -62.69224466	     -8.49138596	      8.30630401	      0.00000000	     29.47563087	     10.41990567	      3.23788264	    -24.92029565	      6.11911970	    -19.44332084	      0.00000000	    -11.61494512	    -10.47243502	      3.81199125
      4.09000000	     -4.65856977	      5.81612987	     -9.48753231	     -2.62994521	      0.67791030	      0.31702611	     10.81823409	     -4.99401530	      6.11174796	    -65.52487041	     -6.78364682	      8.27268882	      0.00000000	     27.67789449	     11.48737648	      3.52599636	    -24.02169459	      7.22771827	    -19.44826104	      0.00000000	    -11.43644502	    -11.24548529	      3.17795433
